<?xml version="1.0" encoding="utf-8"?>
<!-- Generator: Adobe Illustrator 28.0.0, SVG Export Plug-In . SVG Version: 6.00 Build 0)  -->
<svg version="1.1" id="Camada_1" xmlns="http://www.w3.org/2000/svg" xmlns:xlink="http://www.w3.org/1999/xlink" x="0px" y="0px"
	 viewBox="0 0 32 32" style="enable-background:new 0 0 32 32;" xml:space="preserve">
<style type="text/css">
	.st0{fill:#2F5090;}
</style>
<g>
	<path class="st0" d="M25.14,1.54c0.1,0.05,0.26,0.08,0.28,0.15c0.04,0.16,0.01,0.34,0.01,0.5c0,9.65,0,19.31,0,28.96
		c-1.6,0-3.19,0-4.79,0c-0.01-0.34-0.03-0.68-0.03-1.01c0-6.72,0-13.43,0-20.15c0-0.28,0-0.56,0-0.96
		c-3.27,1.85-6.41,3.64-9.56,5.43l0.02,0.01c0.01-1.39,0.01-2.79,0.04-4.18c0.01-0.45-0.16-0.68-0.54-0.9
		c-1.44-0.8-2.87-1.65-4.3-2.48c0-1.67,0-3.34,0-5.01c0-0.19-0.07-0.45,0.29-0.36c1.31,0.76,2.6,1.55,3.93,2.26
		c0.48,0.26,0.64,0.55,0.63,1.07C11.08,6.08,11.1,7.29,11.1,8.5c0,0.35,0,0.7,0,1.13c0.29-0.13,0.45-0.18,0.59-0.26
		c3.17-1.82,6.34-3.64,9.51-5.48C22.52,3.13,23.82,2.32,25.14,1.54z"/>
	<path class="st0" d="M11.05,14.45c0.01,2.92,0.03,5.83,0.03,8.75c0,2.65-0.01,5.3-0.02,7.95c-1.59,0-3.18,0-4.79,0
		c0-6.44,0-12.87,0-19.31c0.18,0.06,0.38,0.08,0.54,0.17c1.42,0.81,2.84,1.63,4.25,2.45L11.05,14.45z"/>
</g>
</svg>
